<svg width="30" height="28" viewBox="0 0 30 28" fill="none" xmlns="http://www.w3.org/2000/svg">
<path d="M22.2936 10.4908L16.2385 1.40825C15.9632 1.13302 15.5505 0.857788 15.1376 0.857788C14.7248 0.857788 14.3119 0.995403 14.0367 1.40825L7.98165 10.4908H1.37615C0.550459 10.4908 0 11.0413 0 11.867C0 12.0046 0 12.1422 0 12.2798L3.44037 25.078C3.7156 26.1789 4.81651 27.1422 6.05505 27.1422H23.945C25.1835 27.1422 26.2844 26.3165 26.5596 25.078L30 12.2798C30 12.1422 30 12.0046 30 11.867C30 11.0413 29.4495 10.4908 28.6239 10.4908H22.2936ZM11.0092 10.4908L15.1376 4.43577L19.2661 10.4908H11.0092ZM15.1376 21.5C13.6239 21.5 12.3853 20.2615 12.3853 18.7477C12.3853 17.2339 13.6239 15.9954 15.1376 15.9954C16.6514 15.9954 17.8899 17.2339 17.8899 18.7477C17.8899 20.2615 16.6514 21.5 15.1376 21.5Z" fill="#212121"/>
</svg>
